<svg width="123" height="69" viewBox="0 0 123 69" fill="none" xmlns="http://www.w3.org/2000/svg">
<path opacity="0.1" d="M30.7555 53.5162C38.8274 53.5162 42.0378 47.5539 42.0378 35.446V32.7859C42.0378 20.7697 38.5522 14.7157 30.572 14.7157C22.6835 14.7157 19.1062 20.678 19.1062 32.7859V35.5377C19.1062 47.7374 22.6835 53.5162 30.7555 53.5162ZM30.2051 68.1007C11.8597 68.1007 0.302164 56.268 0.302164 35.6294V32.8776C0.302164 12.1474 13.2356 0.498091 30.572 0.498091C47.8166 0.498091 60.8418 11.2301 60.8418 32.5107V35.0791C60.8418 55.9011 48.9174 68.1007 30.2051 68.1007ZM96.411 67V54.4334H64.4901V47.3705L91.8247 1.41536H114.481V41.5H122.92V54.4334H114.481V67H96.411ZM82.1934 41.5H96.8697V15.5413L82.1934 41.5Z" fill="url(#paint0_linear_907_3024)"/>
<defs>
<linearGradient id="paint0_linear_907_3024" x1="61.5" y1="-13" x2="61.5" y2="88" gradientUnits="userSpaceOnUse">
<stop stop-color="#6F69F2"/>
<stop offset="1" stop-color="#403D8C" stop-opacity="0"/>
</linearGradient>
</defs>
</svg>
